<svg width="242" height="295" viewBox="0 0 242 295" fill="none" xmlns="http://www.w3.org/2000/svg">
<path d="M120.5 96.5225C114.667 82.3559 112.7 52.1225 151.5 44.5225C190.3 36.9225 202.667 45.3559 204 50.5225C205.5 57.5225 203.1 76.6224 181.5 97.0224C154.5 122.523 133 113.523 120.5 96.5225ZM120.5 96.5225C104.333 95.5225 76.1 82.6225 92.5 39.0225C108.9 -4.57745 124.667 -0.810786 130.5 6.52255C141.833 19.3559 161.9 51.9225 151.5 79.5225C147.667 85.0225 136.1 96.1226 120.5 96.5225ZM121.297 97.0523C121.198 96.8724 121.099 96.6958 121 96.5226C120.989 96.4843 120.976 96.4448 120.961 96.4042M121.297 97.0523C125.423 104.6 128.582 117.988 121.267 130M121.297 97.0523C136.493 97.8003 147.732 108.617 151.5 114.023C155.797 125.426 154.893 137.676 151.553 149.033M121.297 97.0523C121.032 97.0393 120.767 97.0293 120.5 97.0225M121.267 130C117.344 136.441 110.411 142.486 99.0001 147.023C96.1931 148.139 93.4936 149.104 90.8997 149.932M121.267 130C115.075 118.596 117.15 105.159 120.5 97.0225M121.267 130C125.856 138.452 134.985 145.788 151.5 149.022C151.518 149.026 151.536 149.029 151.553 149.033M90.8997 149.932C55.1429 161.352 39.4324 146.82 38.5001 144.023C37.5001 141.023 32.0001 123.022 62.5001 94.5225C92.7667 66.2405 119.094 91.1356 120.961 96.4042M90.8997 149.932C78.1172 110.009 104.915 97.9865 120.5 97.0225M90.8997 149.932C91.377 151.423 91.9096 152.953 92.5 154.522C108.9 198.122 124.667 194.356 130.5 187.022C137.151 179.491 146.81 165.164 151.553 149.033M120.961 96.4042C133.525 79.8081 154.829 71.3334 181.5 96.5226C203.1 116.923 205.5 136.023 204 143.022C202.667 148.187 190.311 156.615 151.553 149.033M120.961 96.4042C120.806 96.6091 120.652 96.8152 120.5 97.0225M121 97.0224C127.5 85.6891 132.2 59.7224 99.0001 46.5224C57.5001 30.0224 39.5001 46.5224 38.5001 49.5224C37.5001 52.5224 32.0001 70.5225 62.5001 99.0225C93.0001 127.523 119.5 102.022 121 97.0224Z" stroke="white" stroke-width="4"/>
<path d="M44 217.522H60.5M30 256.022V280.022M22 280.022H38.5M69.5 270.022L100 257.022C97.8333 251.856 90.4 242.922 78 248.522C73.8333 250.522 66.3 257.622 69.5 270.022ZM69.5 270.022C71 276.022 78.5 281.522 85.5 281.022C91.1 280.622 95.1667 277.856 96.5 276.522M152.5 247.522H159.5V259.522M159.5 280.022V259.522M151.5 280.022H167.5M159.5 259.522C161.333 255.189 166.9 246.722 174.5 247.522C178.333 247.189 185.9 248.622 185.5 257.022V279.522M178 280.022H193.5M201.5 217.522H217.5V275.522C217.5 281.189 214.2 292.722 201 293.522M226 247.522H234.5V280.022M226 280.022H242M126 246.522C120.5 246.689 109.5 250.422 109.5 264.022C109.5 277.622 120.5 281.022 126 281.022C131.667 280.856 143 277.222 143 264.022C143 247.522 126 246.022 126 246.522Z" stroke="white" stroke-width="2"/>
<path d="M0 217.522H7M16.5 217.522H7M7 217.522L30 256.022L53.5 217.522" stroke="white" stroke-width="2"/>
<circle cx="234" cy="234.522" r="2" fill="white"/>
</svg>
